<svg xmlns="http://www.w3.org/2000/svg" width="40.112" height="40.112" viewBox="0 0 40.112 40.112">
  <g id="Group_197" data-name="Group 197" transform="translate(225 1220.112)">
    <path id="Path_177" data-name="Path 177" d="M20.057,0A20.056,20.056,0,1,0,40.112,20.056,20.056,20.056,0,0,0,20.057,0m0,35.517A15.461,15.461,0,1,1,35.517,20.056,15.461,15.461,0,0,1,20.057,35.517" transform="translate(-225 -1220.112)" fill="#fff"/>
    <path id="Path_178" data-name="Path 178" d="M141.18,180.144l-8.159-5.693a.7.7,0,0,0-1.107.578v1.824a.4.4,0,0,1-.4.4H121.377a1.174,1.174,0,0,0-1.174,1.174v3.39a1.174,1.174,0,0,0,1.174,1.174H131.51a.4.4,0,0,1,.4.4v3.018a.7.7,0,0,0,1.107.578l8.159-5.693a.7.7,0,0,0,0-1.155" transform="translate(-335.786 -1380.121)" fill="#fff"/>
  </g>
</svg>
