<svg xmlns="http://www.w3.org/2000/svg" xmlns:xlink="http://www.w3.org/1999/xlink" width="43.085" height="40.112" viewBox="0 0 43.085 40.112">
  <defs>
    <clipPath id="clip-path">
      <rect id="Rectangle_384" data-name="Rectangle 384" width="43.085" height="40.112" fill="#fff"/>
    </clipPath>
  </defs>
  <g id="Group_199" data-name="Group 199" transform="translate(121 -126.786)">
    <g id="Group_198" data-name="Group 198" transform="translate(-412 -73)">
      <g id="Group_197" data-name="Group 197">
        <g id="Group_184" data-name="Group 184" transform="translate(6 5.786)">
          <g id="Group_183" data-name="Group 183" transform="translate(285 194)">
            <g id="Group_182" data-name="Group 182" clip-path="url(#clip-path)">
              <path id="Path_175" data-name="Path 175" d="M40.241,209.3a.776.776,0,0,1,.738,1A20.056,20.056,0,0,1,21.6,224.73,20.041,20.041,0,0,1,1.563,206.972h-.8a.766.766,0,0,1-.624-1.211l2.191-3.07a.776.776,0,0,1,1.257.008l2.183,3.055a.769.769,0,0,1-.625,1.219H4.672A16.957,16.957,0,0,0,21.6,221.644a16.959,16.959,0,0,0,16.282-11.8.77.77,0,0,1,.731-.544Z" transform="translate(0 -184.617)" fill="#fff"/>
              <path id="Path_176" data-name="Path 176" d="M64.027,17.757H63.24a20.2,20.2,0,0,0-39.408-3.332.776.776,0,0,0,.738,1h1.616a.77.77,0,0,0,.731-.544,17.119,17.119,0,0,1,33.214,2.874h-.478a.769.769,0,0,0-.625,1.219l2.183,3.062a.78.78,0,0,0,1.257,0l2.183-3.062a.77.77,0,0,0-.625-1.219" transform="translate(-21.711)" fill="#fff"/>
            </g>
          </g>
          <path id="Icon_awesome-bus" data-name="Icon awesome-bus" d="M20.294,5.323h-.333v-2C19.962,1.464,15.836,0,10.646,0S1.331,1.464,1.331,3.327v2H1a1,1,0,0,0-1,1V9.648a1,1,0,0,0,1,1h.333V17.3a1.331,1.331,0,0,0,1.331,1.331v1.331a1.331,1.331,0,0,0,1.331,1.331H5.323a1.331,1.331,0,0,0,1.331-1.331V18.631h7.985v1.331a1.331,1.331,0,0,0,1.331,1.331H17.3a1.331,1.331,0,0,0,1.331-1.331V18.631H18.9a1.05,1.05,0,0,0,1.065-1.065v-6.92h.333a1,1,0,0,0,1-1V6.321A1,1,0,0,0,20.294,5.323ZM4.658,16.635A1.331,1.331,0,1,1,5.988,15.3,1.331,1.331,0,0,1,4.658,16.635Zm.665-4.658a1.331,1.331,0,0,1-1.331-1.331V5.323A1.331,1.331,0,0,1,5.323,3.992H15.969A1.331,1.331,0,0,1,17.3,5.323v5.323a1.331,1.331,0,0,1-1.331,1.331Zm11.312,4.658A1.331,1.331,0,1,1,17.965,15.3,1.331,1.331,0,0,1,16.635,16.635Z" transform="translate(295.866 203.313)" fill="#fff"/>
        </g>
      </g>
    </g>
  </g>
</svg>
