<svg xmlns="http://www.w3.org/2000/svg" width="257.166" height="198.844" viewBox="0 0 257.166 198.844">
  <g id="Group_36" data-name="Group 36" transform="translate(-146 -302.642)">
    <path id="Path_35" data-name="Path 35" d="M1.9,27.712a5.644,5.644,0,0,1,4,1.369c5.563-9.188,8.278-16.7,6.409-18.771C8.549,9.964,5.855,9.053,5.855,7.979H3.407V4.255A4.254,4.254,0,0,1,7.661,0H23.616a4.255,4.255,0,0,1,4.255,4.254V7.979H25.423c0,1.024-2.446,1.9-5.938,2.282a6.483,6.483,0,0,1,.249,6.218l-8.416,17.26a5.522,5.522,0,0,1-4.86,3.27v.129c0,1.42-2.042,2.571-4.559,2.571A7.519,7.519,0,0,1,0,39.469V27.952a7.553,7.553,0,0,1,1.9-.241" transform="translate(375.294 302.641)" fill="#231f20"/>
    <path id="Path_36" data-name="Path 36" d="M332.842,27.712a5.64,5.64,0,0,0-4,1.369c-5.563-9.188-8.28-16.7-6.409-18.771,3.763-.345,6.456-1.257,6.456-2.331h2.449V4.255A4.253,4.253,0,0,0,327.081,0H311.126a4.255,4.255,0,0,0-4.255,4.254V7.979h2.449c0,1.024,2.446,1.9,5.938,2.282a6.481,6.481,0,0,0-.248,6.218l8.415,17.26a5.523,5.523,0,0,0,4.86,3.27v.129c0,1.42,2.042,2.571,4.558,2.571a7.527,7.527,0,0,0,1.9-.241V27.952a7.561,7.561,0,0,0-1.9-.241" transform="translate(-160.871 302.641)" fill="#231f20"/>
    <path id="Path_37" data-name="Path 37" d="M36,169.212v62.178a8.543,8.543,0,0,1-6.1,8.168V161.044a8.544,8.544,0,0,1,6.1,8.168" transform="translate(353.489 261.93)" fill="#231f20"/>
    <path id="Path_39" data-name="Path 39" d="M306.109,169.212v62.178a8.542,8.542,0,0,0,6.1,8.168V161.044a8.543,8.543,0,0,0-6.1,8.168" transform="translate(-146.771 261.93)" fill="#231f20"/>
    <path id="Path_41" data-name="Path 41" d="M32.464,102.883v17.033c1.822,0,3.312-.908,3.312-2.017v-13c0-1.11-1.49-2.017-3.312-2.017" transform="translate(343.133 276.633)" fill="#333"/>
    <path id="Path_42" data-name="Path 42" d="M310.588,102.883v17.033c-1.822,0-3.312-.908-3.312-2.017v-13c0-1.11,1.49-2.017,3.312-2.017" transform="translate(-137.019 276.633)" fill="#333"/>
    <path id="Path_43" data-name="Path 43" d="M38.865,58.324v52.291c1.325,0,2.408-2.787,2.408-6.193V64.516c0-3.406-1.083-6.192-2.408-6.192" transform="translate(332.852 287.897)" fill="#333"/>
    <path id="Path_44" data-name="Path 44" d="M304.492,58.324v52.291c-1.324,0-2.408-2.787-2.408-6.193V64.516c0-3.406,1.084-6.192,2.408-6.192" transform="translate(-127.044 287.897)" fill="#333"/>
    <path id="Path_46" data-name="Path 46" d="M46.061,168.524h66.354v5.389H46.061a2.77,2.77,0,0,1,0-5.389" transform="translate(257.925 260.039)" fill="#231f20"/>
    <path id="Path_47" data-name="Path 47" d="M276.1,168.524H208.587v5.389H276.1a2.759,2.759,0,0,0,0-5.389" transform="translate(-29.761 262.733)" fill="#231f20"/>
    <path id="Path_62" data-name="Path 62" d="M33.471,0H3.864A3.864,3.864,0,0,0,0,3.864V33.471a3.864,3.864,0,0,0,3.864,3.864H33.472a3.863,3.863,0,0,0,3.863-3.863V3.864A3.864,3.864,0,0,0,33.471,0Z" transform="translate(329.927 387.343)" fill="#d9d9d9"/>
    <path id="Path_48" data-name="Path 48" d="M48.943,151.971a1.542,1.542,0,0,0,1.54,1.539H82.044a1.541,1.541,0,0,0,1.54-1.539v-22.9h2.694v22.9a4.239,4.239,0,0,1-4.234,4.234H50.483a4.239,4.239,0,0,1-4.234-4.234v-22.9h2.694Z" transform="translate(282.33 270.013)"/>
    <path id="Path_49" data-name="Path 49" d="M55.521,160.514a2.6,2.6,0,0,0,2.6,2.6H79.1a2.6,2.6,0,1,0,0-5.2H58.119a2.6,2.6,0,0,0-2.6,2.6" transform="translate(279.986 262.721)"/>
    <path id="Path_61" data-name="Path 61" d="M45.387,0H5.239A5.239,5.239,0,0,0,0,5.239v40.15a5.239,5.239,0,0,0,5.239,5.239H45.388a5.239,5.239,0,0,0,5.239-5.239V5.24A5.24,5.24,0,0,0,45.387,0Z" transform="translate(192.845 374.353)" fill="#d9d9d9"/>
    <path id="Path_50" data-name="Path 50" d="M214.93,148.333a2.09,2.09,0,0,0,2.088,2.088h42.8a2.09,2.09,0,0,0,2.088-2.088V117.278h3.654v31.055a5.749,5.749,0,0,1-5.742,5.741h-42.8a5.748,5.748,0,0,1-5.741-5.741V117.278h3.654Z" transform="translate(-20.258 272.994)"/>
    <path id="Path_51" data-name="Path 51" d="M223.85,159.918a3.523,3.523,0,0,0,3.523,3.523h28.446a3.523,3.523,0,0,0,0-7.046H227.373a3.523,3.523,0,0,0-3.523,3.523" transform="translate(-23.437 263.105)"/>
    <path id="Path_52" data-name="Path 52" d="M54.114,35.552H225.393c5.482,0,9.925,3.007,9.925,6.715v.794c0,6.713-4.443,12.157-9.925,12.157H54.114c-5.481,0-9.925-5.444-9.925-12.157v-.794c0-3.708,4.444-6.715,9.925-6.715" transform="translate(134.83 293.654)" fill="#6d6e71"/>
    <path id="Path_53" data-name="Path 53" d="M194.314,35.5h73.611c2.356,0,4.266,3.806,4.266,8.5v1c0,8.5-1.91,15.391-4.266,15.391H194.314c-2.356,0-4.266-6.892-4.266-15.391V44c0-4.695,1.91-8.5,4.266-8.5" transform="translate(-11.029 293.667)" fill="#6d6e71"/>
    <path id="Path_54" data-name="Path 54" d="M187.026,65.224a6.9,6.9,0,1,0,6.9-6.9,6.9,6.9,0,0,0-6.9,6.9" transform="translate(62.594 287.897)" fill="gray"/>
    <path id="Path_55" data-name="Path 55" d="M194.948,71.82h1.29a1.33,1.33,0,0,0,1.326-1.326V66.246a1.33,1.33,0,0,0-1.326-1.326h-1.29a1.33,1.33,0,0,0-1.326,1.326v4.248a1.33,1.33,0,0,0,1.326,1.326" transform="translate(60.926 286.23)" fill="#b3b3b3"/>
    <path id="Path_56" data-name="Path 56" d="M191.643,72.328a3.45,3.45,0,1,0,3.451-3.45,3.45,3.45,0,0,0-3.451,3.45" transform="translate(61.426 285.229)" fill="#4d4d4d"/>
    <path id="Path_57" data-name="Path 57" d="M235.754,42c.84-.084,1.692-.128,2.554-.128s1.713.044,2.553.128a25.536,25.536,0,1,1-5.107,0M257.46,67.406a19.152,19.152,0,0,0-16.6-18.977V58.537a9.2,9.2,0,0,1,6.149,11.933l7.577,7.022a19.053,19.053,0,0,0,2.872-10.086M238.308,86.558a19.08,19.08,0,0,0,13.027-5.118l-7.32-6.784a9.2,9.2,0,0,1-11.414,0l-7.32,6.784a19.079,19.079,0,0,0,13.027,5.118m-16.28-9.066L229.6,70.47a9.2,9.2,0,0,1,6.149-11.933V48.428a19.148,19.148,0,0,0-13.726,29.064" transform="translate(-19.662 292.057)" fill="#ffda03"/>
    <path id="Path_58" data-name="Path 58" d="M239.222,74.092a5.772,5.772,0,1,0,5.771-5.771,5.771,5.771,0,0,0-5.771,5.771" transform="translate(-26.347 285.37)" fill="gray"/>
    <path id="Path_59" data-name="Path 59" d="M55.187,50.248h5.968a2.321,2.321,0,1,0,0-4.642H55.187a2.321,2.321,0,1,0,0,4.642" transform="translate(300.189 291.113)" fill="#b3b3b3"/>
    <path id="Path_60" data-name="Path 60" d="M279.428,50.248H285.4a2.321,2.321,0,0,0,0-4.642h-5.968a2.321,2.321,0,0,0,0,4.642" transform="translate(-91.605 291.113)" fill="#b3b3b3"/>
  </g>
</svg>
