<svg xmlns="http://www.w3.org/2000/svg" width="252.651" height="195.352" viewBox="3666.342 -3541.507 252.651 195.352"><g data-name="Multiple Layers (24)"><path d="M3893.476-3514.283c1.713 0 3.183.548 3.935 1.344 5.465-9.026 8.133-16.406 6.296-18.441-3.697-.34-6.344-1.235-6.344-2.29h-2.405v-3.658a4.18 4.18 0 0 1 4.18-4.18h15.674a4.18 4.18 0 0 1 4.181 4.18v3.658h-2.406c0 1.007-2.403 1.87-5.833 2.242 1.07 1.708 1.244 4.058.244 6.11l-8.268 16.956c-.997 2.046-2.877 3.21-4.774 3.213v.127c0 1.395-2.007 2.526-4.48 2.526a7.387 7.387 0 0 1-1.865-.237v-11.314a7.42 7.42 0 0 1 1.865-.236" fill="#231f20" fill-rule="evenodd" data-name="Path 35"/><path d="M3691.858-3514.283c-1.713 0-3.182.548-3.934 1.344-5.465-9.026-8.134-16.406-6.296-18.441 3.697-.34 6.343-1.235 6.343-2.29h2.406v-3.658c0-2.308-1.87-4.18-4.18-4.18h-15.675a4.18 4.18 0 0 0-4.18 4.18v3.658h2.406c0 1.007 2.403 1.87 5.834 2.242-1.07 1.708-1.245 4.058-.244 6.11l8.267 16.956c.997 2.046 2.878 3.21 4.775 3.213v.127c0 1.395 2.006 2.526 4.478 2.526.669 0 1.294-.088 1.866-.237v-11.314a7.428 7.428 0 0 0-1.866-.236" fill="#231f20" fill-rule="evenodd" data-name="Path 36"/><path d="M3905.555-3415.265v61.086c0 3.802-2.535 6.978-5.995 8.025v-77.135c3.46 1.048 5.995 4.223 5.995 8.024" fill="#231f20" fill-rule="evenodd" data-name="Path 37"/><path d="M3679.446-3415.265v61.086c0 3.802 2.534 6.978 5.996 8.025v-77.135c-3.462 1.048-5.996 4.223-5.996 8.024" fill="#231f20" fill-rule="evenodd" data-name="Path 39"/><path d="M3891.908-3465.984v16.734c1.79 0 3.254-.892 3.254-1.982v-12.77c0-1.09-1.464-1.982-3.254-1.982" fill="#333" fill-rule="evenodd" data-name="Path 41"/><path d="M3693.427-3465.984v16.734c-1.79 0-3.253-.892-3.253-1.982v-12.77c0-1.09 1.463-1.982 3.253-1.982" fill="#333" fill-rule="evenodd" data-name="Path 42"/><path d="M3888.097-3498.694v51.373c1.302 0 2.366-2.738 2.366-6.084v-39.206c0-3.345-1.064-6.083-2.366-6.083" fill="#333" fill-rule="evenodd" data-name="Path 43"/><path d="M3697.238-3498.694v51.373c-1.3 0-2.366-2.738-2.366-6.084v-39.206c0-3.345 1.066-6.083 2.366-6.083" fill="#333" fill-rule="evenodd" data-name="Path 44"/><path d="M3821.555-3417.798h65.188v5.294h-65.188c-1.15 0-2.092-1.191-2.092-2.647 0-1.455.941-2.647 2.092-2.647" fill="#231f20" fill-rule="evenodd" data-name="Path 46"/><path d="M3763.782-3417.798h-65.19v5.294h65.19c1.15 0 2.09-1.191 2.09-2.647 0-1.455-.94-2.647-2.09-2.647" fill="#231f20" fill-rule="evenodd" data-name="Path 47"/><path d="M3879.923-3458.294h-29.087a3.796 3.796 0 0 0-3.796 3.796v29.088c0 2.096 1.7 3.796 3.796 3.796h29.088c2.096 0 3.795-1.7 3.795-3.795v-29.089c0-2.096-1.7-3.796-3.796-3.796Z" fill="#d9d9d9" fill-rule="evenodd" data-name="Path 62"/><path d="M3848.363-3424.262c0 .834.679 1.513 1.513 1.513h31.006c.835 0 1.513-.679 1.513-1.513v-22.498h2.648v22.498a4.165 4.165 0 0 1-4.16 4.16h-31.007a4.165 4.165 0 0 1-4.16-4.16v-22.498h2.647v22.498Z" fill-rule="evenodd" data-name="Path 48"/><path d="M3852.522-3423.033a2.553 2.553 0 0 0 2.552 2.553h20.609a2.553 2.553 0 1 0 0-5.105h-20.609a2.553 2.553 0 0 0-2.552 2.552" fill-rule="evenodd" data-name="Path 49"/><path d="M3756.956-3471.056h-39.444a5.147 5.147 0 0 0-5.147 5.147v39.445a5.147 5.147 0 0 0 5.147 5.147h39.445a5.147 5.147 0 0 0 5.147-5.147v-39.444a5.148 5.148 0 0 0-5.148-5.148Z" fill="#d9d9d9" fill-rule="evenodd" data-name="Path 61"/><path d="M3714.16-3424.907c0 1.131.92 2.051 2.05 2.051h42.048c1.13 0 2.051-.92 2.051-2.05v-30.51h3.59v30.51c0 3.109-2.531 5.64-5.64 5.64h-42.048a5.648 5.648 0 0 1-5.64-5.64v-30.51h3.589v30.51Z" fill-rule="evenodd" data-name="Path 50"/><path d="M3708.533-3515.41h168.271c5.386 0 9.75 2.953 9.75 6.597v.78c0 6.595-4.364 11.944-9.75 11.944h-168.271c-5.385 0-9.751-5.349-9.751-11.944v-.78c0-3.644 4.366-6.597 9.75-6.597" fill="#6d6e71" fill-rule="evenodd" data-name="Path 52"/><path d="M3702.972-3515.446h72.32c2.314 0 4.19 3.74 4.19 8.351v.988c0 8.35-1.876 15.12-4.19 15.12h-72.32c-2.314 0-4.19-6.77-4.19-15.12v-.987c0-4.613 1.876-8.352 4.19-8.352" fill="#6d6e71" fill-rule="evenodd" data-name="Path 53"/><path d="M3768.143-3491.915a6.78 6.78 0 1 0 13.558 0 6.78 6.78 0 0 0-13.558 0" fill="gray" fill-rule="evenodd" data-name="Path 54"/><path d="M3774.288-3487.073h1.268c.716 0 1.303-.586 1.303-1.303v-4.173c0-.716-.587-1.303-1.303-1.303h-1.268c-.717 0-1.303.587-1.303 1.303v4.173c0 .717.586 1.303 1.303 1.303" fill="#b3b3b3" fill-rule="evenodd" data-name="Path 55"/><path d="M3771.532-3487.557a3.39 3.39 0 1 0 6.779 0 3.39 3.39 0 0 0-6.779 0" fill="#4d4d4d" fill-rule="evenodd" data-name="Path 56"/><path d="M3735.205-3510.647a25.3 25.3 0 0 1 5.017 0c12.678 1.258 22.579 11.953 22.579 24.962a24.964 24.964 0 0 1-4.43 14.231 25.197 25.197 0 0 1-3.252 3.827c-4.512 4.35-10.644 7.03-17.405 7.03-6.762 0-12.894-2.68-17.406-7.03a25.237 25.237 0 0 1-3.252-3.827 24.964 24.964 0 0 1-4.43-14.231c0-13.009 9.901-23.704 22.579-24.962m21.324 24.962c0-9.54-7.102-17.417-16.307-18.644v9.931c3.79 1.09 6.564 4.574 6.564 8.713a9.03 9.03 0 0 1-.522 3.01l7.443 6.9a18.719 18.719 0 0 0 2.822-9.91m-18.815 18.816c4.944 0 9.44-1.91 12.798-5.028l-7.191-6.665a9.026 9.026 0 0 1-5.607 1.95 9.024 9.024 0 0 1-5.607-1.95l-7.191 6.665a18.744 18.744 0 0 0 12.798 5.028m-15.994-8.907 7.443-6.899a9.048 9.048 0 0 1-.522-3.01c0-4.139 2.775-7.624 6.564-8.713v-9.931c-9.205 1.227-16.307 9.104-16.307 18.644 0 3.637 1.035 7.03 2.822 9.91" fill="#ecb95a" fill-rule="evenodd" data-name="Path 57"/><path d="M3732.043-3485.685a5.67 5.67 0 1 0 11.34 0 5.67 5.67 0 0 0-11.34 0" fill="gray" fill-rule="evenodd" data-name="Path 58"/><path d="M3872.042-3503.47h5.863a2.287 2.287 0 0 0 2.28-2.28 2.287 2.287 0 0 0-2.28-2.28h-5.863a2.287 2.287 0 0 0-2.28 2.28 2.287 2.287 0 0 0 2.28 2.28" fill="#b3b3b3" fill-rule="evenodd" data-name="Path 59"/><path d="M3707.43-3503.47h5.864a2.287 2.287 0 0 0 2.28-2.28 2.287 2.287 0 0 0-2.28-2.28h-5.864a2.287 2.287 0 0 0-2.28 2.28 2.287 2.287 0 0 0 2.28 2.28" fill="#b3b3b3" fill-rule="evenodd" data-name="Path 60"/></g></svg>