<svg xmlns="http://www.w3.org/2000/svg" width="49.24" height="38.594" viewBox="3329.944 -1840.696 49.24 38.594"><g data-name="Multiple Layers (4)"><path d="M3340.598-1840.696h28.597a4 4 0 0 1 4 4v23.94a4 4 0 0 1-4 4h-28.597a4 4 0 0 1-4-4v-23.94a4 4 0 0 1 4-4z" fill="#d9d9d9" fill-rule="evenodd" data-name="Rectangle 28"/><path d="M3337.598-1807.426h34.597a1 1 0 0 1 1 1v3.324a1 1 0 0 1-1 1h-34.597a1 1 0 0 1-1-1v-3.324a1 1 0 0 1 1-1z" fill="#d9d9d9" fill-rule="evenodd" data-name="Rectangle 33"/><path d="M3377.187-1834.042a1.996 1.996 0 0 1 1.997 1.996v16.072a1.996 1.996 0 0 1-1.997 1.997 1.996 1.996 0 0 1-1.996-1.997v-16.072a1.996 1.996 0 0 1 1.996-1.996z" fill="#d9d9d9" fill-rule="evenodd" data-name="Rectangle 29"/><path d="M3331.94-1834.042a1.996 1.996 0 0 1 1.996 1.996v16.072a1.996 1.996 0 0 1-1.996 1.997 1.996 1.996 0 0 1-1.996-1.997v-16.072a1.996 1.996 0 0 1 1.996-1.996z" fill="#d9d9d9" fill-rule="evenodd" data-name="Rectangle 32"/></g></svg>