<svg xmlns="http://www.w3.org/2000/svg" width="27.798" height="25.98"><path d="M24.768 0h-2.599v2.598c0 .52-.432.866-.866.866a.868.868 0 0 1-.865-.866V0H6.582v2.598c0 .52-.433.866-.866.866a.868.868 0 0 1-.866-.866V0H2.252C.952 0 0 1.126 0 2.598v3.118h27.712V2.598C27.712 1.126 26.153 0 24.768 0M0 7.534v15.848c0 1.559.953 2.598 2.338 2.598h22.516c1.386 0 2.945-1.126 2.945-2.598V7.534H0Zm7.707 14.549H5.63a.683.683 0 0 1-.693-.693v-2.165c0-.346.26-.693.693-.693h2.165c.346 0 .693.26.693.693v2.165c-.087.433-.347.693-.78.693Zm0-7.794H5.63a.683.683 0 0 1-.693-.693v-2.165c0-.346.26-.693.693-.693h2.165c.346 0 .693.26.693.693v2.165c-.087.433-.347.693-.78.693Zm6.928 7.794H12.47a.683.683 0 0 1-.692-.693v-2.165c0-.346.26-.693.692-.693h2.165c.347 0 .693.26.693.693v2.165c0 .433-.26.693-.693.693m0-7.794H12.47a.683.683 0 0 1-.692-.693v-2.165c0-.346.26-.693.692-.693h2.165c.347 0 .693.26.693.693v2.165c0 .433-.26.693-.693.693m6.928 7.794h-2.165a.683.683 0 0 1-.692-.693v-2.165c0-.346.26-.693.692-.693h2.165c.347 0 .693.26.693.693v2.165c0 .433-.26.693-.693.693m0-7.794h-2.165a.683.683 0 0 1-.692-.693v-2.165c0-.346.26-.693.692-.693h2.165c.347 0 .693.26.693.693v2.165c0 .433-.26.693-.693.693" fill="#bebebe" fill-rule="evenodd" data-name="Path 497"/></svg>