<svg id="business-and-finance" xmlns="http://www.w3.org/2000/svg" width="49.285" height="35.817" viewBox="0 0 49.285 35.817">
  <g id="Group_380" data-name="Group 380" transform="translate(4.773 15.142)">
    <g id="Group_379" data-name="Group 379">
      <rect id="Rectangle_217" data-name="Rectangle 217" width="7.946" height="1.591" fill="#005a88"/>
    </g>
  </g>
  <g id="Group_382" data-name="Group 382" transform="translate(4.773 19.916)">
    <g id="Group_381" data-name="Group 381">
      <rect id="Rectangle_218" data-name="Rectangle 218" width="11.923" height="1.591" fill="#005a88"/>
    </g>
  </g>
  <g id="Group_384" data-name="Group 384" transform="translate(4.773 24.689)">
    <g id="Group_383" data-name="Group 383">
      <rect id="Rectangle_219" data-name="Rectangle 219" width="28.62" height="1.591" fill="#005a88"/>
    </g>
  </g>
  <g id="Group_386" data-name="Group 386" transform="translate(4.773 29.453)">
    <g id="Group_385" data-name="Group 385">
      <rect id="Rectangle_220" data-name="Rectangle 220" width="4.773" height="1.591" fill="#005a88"/>
    </g>
  </g>
  <g id="Group_388" data-name="Group 388" transform="translate(12.719 29.453)">
    <g id="Group_387" data-name="Group 387">
      <rect id="Rectangle_221" data-name="Rectangle 221" width="4.773" height="1.591" fill="#005a88"/>
    </g>
  </g>
  <g id="Group_390" data-name="Group 390" transform="translate(20.674 29.453)">
    <g id="Group_389" data-name="Group 389">
      <rect id="Rectangle_222" data-name="Rectangle 222" width="4.773" height="1.591" fill="#005a88"/>
    </g>
  </g>
  <g id="Group_392" data-name="Group 392" transform="translate(26.234 14.347)">
    <g id="Group_391" data-name="Group 391">
      <path id="Path_525" data-name="Path 525" d="M276.764,217.288a3.117,3.117,0,0,0-1.581.437,3.182,3.182,0,1,0,0,5.491,3.118,3.118,0,0,0,1.581.437,3.182,3.182,0,1,0,0-6.364ZM273.99,222a1.477,1.477,0,0,1-.407.058,1.591,1.591,0,0,1,0-3.182,1.875,1.875,0,0,1,.407.058,3.087,3.087,0,0,0,0,3.066Zm2.775.058a1.591,1.591,0,1,1,1.591-1.591A1.6,1.6,0,0,1,276.764,222.061Z" transform="translate(-270.4 -217.288)" fill="#005a88"/>
    </g>
  </g>
  <g id="Group_394" data-name="Group 394" transform="translate(0 0)">
    <g id="Group_393" data-name="Group 393" transform="translate(0 0)">
      <path id="Path_526" data-name="Path 526" d="M47.626,80.078,14.271,69.542a2.278,2.278,0,0,0-2.988,1.552L8.538,79.777H2.387A2.4,2.4,0,0,0,0,82.164v20.674a2.385,2.385,0,0,0,2.387,2.387H37.371a2.37,2.37,0,0,0,1.989-1.077,11.141,11.141,0,0,0,1.319.3,2.364,2.364,0,0,0,2.27-1.669l6.229-19.714A2.3,2.3,0,0,0,47.626,80.078Zm-35.79-5.472,16.386,5.171H17.657l-6.782-2.144ZM10.4,79.156l1.989.631H10.206Zm27.766,23.682h-.01a.8.8,0,0,1-.8.8H2.387a.8.8,0,0,1-.8-.8V82.164a.8.8,0,0,1,.8-.8H37.371a.8.8,0,0,1,.8.8Zm3.269-.534a.8.8,0,0,1-1,.514l-.689-.213V88.431l5.52,1.746Zm4.308-13.65-6-1.892V83.425L46.7,85.618Zm1.921-6.064L47.189,84.1l-7.48-2.358a2.384,2.384,0,0,0-2.338-1.96H33.5L12.312,73.093l.475-1.513a.8.8,0,0,1,1-.514L47.141,81.592A.75.75,0,0,1,47.665,82.591Z" transform="translate(0 -69.408)" fill="#005a88"/>
    </g>
  </g>
</svg>
