<svg xmlns="http://www.w3.org/2000/svg" width="12.908" height="12.908" viewBox="5.42 4.74 12.908 12.908"><g data-name="Group 97"><g data-name="Group 903"><path d="M18.329 11.194a6.454 6.454 0 1 1-12.908 0 6.454 6.454 0 0 1 12.908 0" fill="#fff" fill-rule="evenodd" data-name="Path 68"/><path d="m14.869 13.935-.87-.434S12.519 16.2 9.929 17.35a6.444 6.444 0 0 1-2.453-1.434c.567-.082 1.487-.373 2.456-1.326 1.58-1.555 1.943-2.41 1.943-2.41l-.677-.453a.339.339 0 0 1 .076-.601l2.982-1.04c.203-.07.42.064.447.277l.443 3.376a.192.192 0 0 1-.276.196" fill="#006e96" fill-rule="evenodd" data-name="Path 69"/><path d="M15.767 10.199c-.073.184-.342.157-.376-.039l-.199-1.143-1.474.458a.196.196 0 0 1-.236-.27c.192-.41.48-1.106.7-2.002a3.683 3.683 0 0 0-.11-2.079 6.456 6.456 0 0 1 2.351 1.491c.12 1.353-.344 2.793-.656 3.584" fill="#006e96" fill-rule="evenodd" data-name="Path 70"/></g></g></svg>