<svg xmlns="http://www.w3.org/2000/svg" width="342.237" height="264.623" viewBox="3125 -2026.357 342.237 264.623"><g data-name="Multiple Layers (25)"><path d="M3432.673-1989.48c2.32 0 4.311.743 5.33 1.822 7.403-12.227 11.016-22.225 8.528-24.981-5.007-.46-8.593-1.673-8.593-3.102h-3.258v-4.956a5.661 5.661 0 0 1 5.661-5.66h21.233a5.662 5.662 0 0 1 5.663 5.66v4.956h-3.258c0 1.364-3.256 2.533-7.903 3.037 1.45 2.313 1.686 5.497.331 8.275l-11.2 22.97c-1.35 2.772-3.897 4.347-6.467 4.352v.172c0 1.89-2.717 3.422-6.067 3.422-.904 0-1.754-.119-2.527-.32v-15.327c.773-.2 1.623-.32 2.527-.32" fill="#231f20" fill-rule="evenodd" data-name="Path 35"/><path d="M3159.563-1989.48c-2.32 0-4.31.743-5.328 1.822-7.403-12.227-11.019-22.225-8.53-24.981 5.009-.46 8.592-1.673 8.592-3.102h3.26v-4.956a5.66 5.66 0 0 0-5.661-5.66h-21.234a5.662 5.662 0 0 0-5.662 5.66v4.956h3.259c0 1.364 3.255 2.533 7.902 3.037-1.45 2.313-1.686 5.497-.33 8.275l11.198 22.97c1.35 2.772 3.9 4.347 6.468 4.352v.172c0 1.89 2.718 3.422 6.066 3.422.906 0 1.754-.119 2.528-.32v-15.327c-.774-.2-1.622-.32-2.528-.32" fill="#231f20" fill-rule="evenodd" data-name="Path 36"/><path d="M3449.034-1855.35v82.746c0 5.15-3.434 9.451-8.12 10.87v-104.486c4.686 1.42 8.12 5.72 8.12 10.87" fill="#231f20" fill-rule="evenodd" data-name="Path 37"/><path d="M3142.75-1855.35v82.746c0 5.15 3.433 9.451 8.122 10.87v-104.486c-4.689 1.42-8.121 5.72-8.121 10.87" fill="#231f20" fill-rule="evenodd" data-name="Path 39"/><path d="M3430.549-1924.054v22.668c2.424 0 4.407-1.208 4.407-2.685v-17.298c0-1.477-1.983-2.685-4.407-2.685" fill="#333" fill-rule="evenodd" data-name="Path 41"/><path d="M3161.689-1924.054v22.668c-2.425 0-4.407-1.208-4.407-2.685v-17.298c0-1.477 1.982-2.685 4.407-2.685" fill="#333" fill-rule="evenodd" data-name="Path 42"/><path d="M3425.386-1968.362v69.59c1.763 0 3.205-3.71 3.205-8.242v-53.108c0-4.532-1.442-8.24-3.205-8.24" fill="#333" fill-rule="evenodd" data-name="Path 43"/><path d="M3166.851-1968.362v69.59c-1.762 0-3.204-3.71-3.204-8.242v-53.108c0-4.532 1.442-8.24 3.204-8.24" fill="#333" fill-rule="evenodd" data-name="Path 44"/><path d="M3335.248-1858.782h88.304v7.172h-88.304c-1.558 0-2.833-1.614-2.833-3.586 0-1.972 1.275-3.586 2.833-3.586" fill="#231f20" fill-rule="evenodd" data-name="Path 46"/><path d="M3256.99-1858.782h-88.305v7.172h88.305c1.558 0 2.833-1.614 2.833-3.586 0-1.972-1.275-3.586-2.833-3.586" fill="#231f20" fill-rule="evenodd" data-name="Path 47"/><path d="M3414.313-1913.637h-39.4a5.142 5.142 0 0 0-5.143 5.142v39.401a5.142 5.142 0 0 0 5.143 5.143h39.401a5.14 5.14 0 0 0 5.141-5.141v-39.403a5.142 5.142 0 0 0-5.142-5.142Z" fill="#d9d9d9" fill-rule="evenodd" data-name="Path 62"/><path d="M3371.562-1867.538c0 1.13.92 2.049 2.05 2.049h42.001a2.05 2.05 0 0 0 2.05-2.049v-30.476h3.585v30.476a5.642 5.642 0 0 1-5.635 5.635h-42.002a5.642 5.642 0 0 1-5.635-5.635v-30.476h3.586v30.476Z" fill-rule="evenodd" data-name="Path 48"/><path d="M3377.196-1865.873a3.458 3.458 0 0 0 3.458 3.458h27.916a3.458 3.458 0 1 0 0-6.915h-27.916a3.458 3.458 0 0 0-3.458 3.457" fill-rule="evenodd" data-name="Path 49"/><path d="M3247.743-1930.925h-53.43a6.972 6.972 0 0 0-6.971 6.972v53.432a6.972 6.972 0 0 0 6.972 6.972h53.43a6.972 6.972 0 0 0 6.973-6.972v-53.43a6.973 6.973 0 0 0-6.974-6.974Z" fill="#d9d9d9" fill-rule="evenodd" data-name="Path 61"/><path d="M3189.773-1868.412a2.78 2.78 0 0 0 2.778 2.779h56.957a2.782 2.782 0 0 0 2.779-2.779v-41.328h4.862v41.328c0 4.213-3.429 7.641-7.64 7.641h-56.958c-4.213 0-7.64-3.428-7.64-7.64v-41.329h4.862v41.328Z" fill-rule="evenodd" data-name="Path 50"/><path d="M3197.413-1866.154c0 2.59 2.099 4.688 4.688 4.688h37.856a4.689 4.689 0 0 0 0-9.377h-37.856c-2.59 0-4.688 2.1-4.688 4.689" fill-rule="evenodd" data-name="Path 51"/><path d="M3182.15-1991.006h227.938c7.296 0 13.209 4 13.209 8.936v1.057c0 8.934-5.913 16.179-13.209 16.179H3182.15c-7.294 0-13.208-7.245-13.208-16.179v-1.057c0-4.935 5.914-8.936 13.208-8.936" fill="#6d6e71" fill-rule="evenodd" data-name="Path 52"/><path d="M3174.619-1991.055h97.962c3.135 0 5.677 5.065 5.677 11.313v1.337c0 11.31-2.542 20.483-5.677 20.483h-97.962c-3.136 0-5.677-9.173-5.677-20.483v-1.337c0-6.248 2.541-11.313 5.677-11.313" fill="#6d6e71" fill-rule="evenodd" data-name="Path 53"/><path d="M3262.897-1959.18a9.183 9.183 0 1 0 18.366 0 9.183 9.183 0 1 0-18.366 0" fill="gray" fill-rule="evenodd" data-name="Path 54"/><path d="M3271.221-1952.62h1.718a1.77 1.77 0 0 0 1.765-1.765v-5.653a1.77 1.77 0 0 0-1.765-1.766h-1.718a1.77 1.77 0 0 0-1.765 1.766v5.653c0 .97.795 1.765 1.765 1.765" fill="#b3b3b3" fill-rule="evenodd" data-name="Path 55"/><path d="M3267.488-1953.277a4.591 4.591 0 1 0 9.183 0 4.591 4.591 0 0 0-9.183 0" fill="#4d4d4d" fill-rule="evenodd" data-name="Path 56"/><path d="M3218.28-1984.554a34.27 34.27 0 0 1 6.796 0c17.173 1.704 30.585 16.192 30.585 33.813 0 7.16-2.219 13.8-6 19.278a34.13 34.13 0 0 1-4.406 5.184c-6.111 5.891-14.417 9.522-23.576 9.522-9.16 0-17.467-3.63-23.578-9.522a34.187 34.187 0 0 1-4.405-5.184 33.816 33.816 0 0 1-6.001-19.278c0-17.621 13.412-32.109 30.585-33.813m28.885 33.813c0-12.923-9.62-23.593-22.089-25.255v13.453c5.133 1.475 8.892 6.196 8.892 11.802 0 1.432-.257 2.8-.708 4.078l10.083 9.345a25.356 25.356 0 0 0 3.822-13.423m-25.486 25.488a25.392 25.392 0 0 0 17.335-6.81l-9.74-9.029a12.226 12.226 0 0 1-7.595 2.64c-2.87 0-5.504-.991-7.596-2.64l-9.74 9.028a25.39 25.39 0 0 0 17.336 6.81m-21.666-12.064 10.083-9.345a12.256 12.256 0 0 1-.707-4.078c0-5.606 3.759-10.327 8.89-11.802v-13.453c-12.468 1.662-22.088 12.332-22.088 25.255 0 4.927 1.402 9.524 3.822 13.423" fill="#ecb95a" fill-rule="evenodd" data-name="Path 57"/><path d="M3213.998-1950.741a7.681 7.681 0 1 0 15.362-.001 7.681 7.681 0 0 0-15.362 0" fill="gray" fill-rule="evenodd" data-name="Path 58"/><path d="M3403.638-1974.832h7.942a3.098 3.098 0 0 0 3.088-3.088 3.098 3.098 0 0 0-3.088-3.089h-7.942a3.098 3.098 0 0 0-3.089 3.089 3.098 3.098 0 0 0 3.089 3.088" fill="#b3b3b3" fill-rule="evenodd" data-name="Path 59"/><path d="M3180.657-1974.832h7.943a3.098 3.098 0 0 0 3.088-3.088 3.098 3.098 0 0 0-3.088-3.089h-7.943a3.098 3.098 0 0 0-3.088 3.089 3.098 3.098 0 0 0 3.088 3.088" fill="#b3b3b3" fill-rule="evenodd" data-name="Path 60"/></g></svg>