<svg xmlns="http://www.w3.org/2000/svg" width="55.815" height="15.807" viewBox="0 0 55.815 15.807">
  <g id="Group_97" data-name="Group 97" transform="translate(0)">
    <g id="Group_149" data-name="Group 149" transform="translate(0 0)">
      <g id="Group_150" data-name="Group 150">
        <path id="Path_63" data-name="Path 63" d="M252.2,40.257q.2-.688.405-1.377c.173-.59.342-1.181.518-1.77a.7.7,0,0,1,.777-.581h.914a.685.685,0,0,1,.735.546c.286.968.568,1.938.851,2.906a.807.807,0,0,0,.127.278c.047-.148.095-.3.139-.444q.385-1.3.767-2.6a.826.826,0,0,1,.922-.691c.327,0,.654,0,.982,0,.276,0,.392.126.325.4-.086.344-.2.681-.31,1.019q-.747,2.328-1.5,4.655a.787.787,0,0,1-.833.6H256.3a.8.8,0,0,1-.832-.608q-.522-1.654-1.041-3.308c-.018-.058-.04-.116-.077-.223-.035.1-.057.148-.074.2q-.524,1.662-1.048,3.324a.8.8,0,0,1-.843.614c-.248,0-.5,0-.745,0a.78.78,0,0,1-.8-.579q-.814-2.52-1.621-5.041c-.055-.172-.114-.343-.163-.516a.982.982,0,0,1-.037-.266.234.234,0,0,1,.26-.265c.4,0,.8-.009,1.2,0a.764.764,0,0,1,.741.585q.444,1.483.882,2.968c.017.057.037.114.055.171h.046" transform="translate(-217.469 -31.899)" fill="#006e96"/>
        <path id="Path_64" data-name="Path 64" d="M195.053,41.783l-.276.17a3.572,3.572,0,0,1-2.076.488,3.645,3.645,0,0,1-1.379-.3,1.944,1.944,0,0,1-1.219-1.864,1.92,1.92,0,0,1,1.325-1.839,3.684,3.684,0,0,1,1.39-.251c.626,0,1.252,0,1.878,0,.159,0,.2-.047.188-.207-.083-.776-.4-1.073-1.189-1.078a1.784,1.784,0,0,0-.9.2,1.1,1.1,0,0,0-.287.231.883.883,0,0,1-.7.313c-.265,0-.53,0-.8,0-.312,0-.456-.17-.433-.486a1.44,1.44,0,0,1,.939-1.276,4.307,4.307,0,0,1,1.428-.324,6.252,6.252,0,0,1,2.035.1,2.41,2.41,0,0,1,1.687,1.241,2.608,2.608,0,0,1,.266,1.195q0,1.9,0,3.808c0,.3-.122.422-.42.424-.327,0-.654,0-.981,0s-.442-.1-.462-.438c0-.022-.007-.043-.016-.1m-1.209-2.221v.009c-.31,0-.621-.014-.929,0a.757.757,0,0,0-.693.438.709.709,0,0,0,.544,1,2.815,2.815,0,0,0,2.056-.472.217.217,0,0,0,.066-.158c.007-.22,0-.44,0-.659,0-.127-.048-.167-.17-.165-.293.006-.586,0-.879,0" transform="translate(-166.016 -31.017)" fill="#006e96"/>
        <path id="Path_65" data-name="Path 65" d="M386.2,42.71c-.205-.026-.379-.041-.55-.07a2.167,2.167,0,0,1-1.376-.853,5.227,5.227,0,0,1-.826-1.677c-.328-1.05-.64-2.1-.956-3.158-.078-.259.033-.409.3-.411.384,0,.767,0,1.151,0a.58.58,0,0,1,.6.451c.287.939.567,1.879.859,2.816a3.2,3.2,0,0,0,.516,1.059.9.9,0,0,0,.514.335c.13.03.192,0,.229-.138q.507-1.861,1.023-3.719c.036-.13.07-.261.109-.391a.534.534,0,0,1,.549-.412q.567,0,1.134,0c.289,0,.406.148.331.421-.542,1.98-1.074,3.963-1.636,5.937a6.9,6.9,0,0,1-.551,1.323,2.068,2.068,0,0,1-1.953,1.171c-.534-.005-1.068-.067-1.6-.122a.386.386,0,0,1-.383-.446c0-.2,0-.4,0-.592a.346.346,0,0,1,.383-.376,6.778,6.778,0,0,1,.771.08.968.968,0,0,0,.931-.32,2.075,2.075,0,0,0,.431-.907" transform="translate(-334.009 -31.909)" fill="#006e96"/>
        <path id="Path_66" data-name="Path 66" d="M149.831,24.765c0-.959-.021-1.919.01-2.877a4.037,4.037,0,0,1,.219-1.14,2.041,2.041,0,0,1,1.6-1.334,7.828,7.828,0,0,1,2.491-.118c.213.018.426.047.637.084a.4.4,0,0,1,.38.455c0,.186,0,.373,0,.559a.365.365,0,0,1-.413.4,3.365,3.365,0,0,1-.571-.049,3.607,3.607,0,0,0-1.511.057.967.967,0,0,0-.775.969c-.021.167-.02.338-.037.506-.015.152.039.209.2.207.626-.007,1.253,0,1.879,0,.333,0,.449.115.451.446,0,.2,0,.406,0,.609a.367.367,0,0,1-.413.4c-.638,0-1.275.005-1.913,0-.155,0-.2.045-.2.2.006,1.168,0,2.336,0,3.5,0,.354-.111.465-.465.465h-1.117c-.345,0-.46-.112-.46-.454q0-1.447,0-2.895Z" transform="translate(-130.839 -16.812)" fill="#006e96"/>
        <path id="Path_67" data-name="Path 67" d="M342.025,36.429c.186-.125.329-.224.475-.319a3.79,3.79,0,0,1,2.165-.551.344.344,0,0,1,.363.365c.008.31.009.621,0,.931a.341.341,0,0,1-.376.368,8.1,8.1,0,0,1-.845-.03,1.812,1.812,0,0,0-1.433.517.971.971,0,0,0-.357.819c.025,1.117.009,2.234.009,3.352,0,.359-.116.473-.478.473-.389,0-.779,0-1.168,0a.361.361,0,0,1-.407-.407q0-2.929,0-5.857a.361.361,0,0,1,.407-.406q.627,0,1.253,0a.358.358,0,0,1,.393.387c0,.106,0,.211,0,.357" transform="translate(-296.899 -31.054)" fill="#006e96"/>
        <path id="Path_68" data-name="Path 68" d="M15.807,7.9A7.91,7.91,0,1,1,13.474,2.3,7.9,7.9,0,0,1,15.807,7.9" fill="#fff"/>
        <path id="Path_69" data-name="Path 69" d="M28.911,56.233,27.847,55.7a12.126,12.126,0,0,1-4.987,4.713,7.892,7.892,0,0,1-3-1.755,5.44,5.44,0,0,0,3.008-1.625,11.1,11.1,0,0,0,2.38-2.952l-.83-.553a.415.415,0,0,1,.093-.737l3.652-1.272a.415.415,0,0,1,.548.338l.542,4.134a.235.235,0,0,1-.339.241" transform="translate(-17.34 -44.972)" fill="#006e96"/>
        <path id="Path_70" data-name="Path 70" d="M80.564,9.923a.24.24,0,0,1-.461-.047l-.243-1.4-1.8.561a.24.24,0,0,1-.289-.332,13.378,13.378,0,0,0,.856-2.451,4.51,4.51,0,0,0-.134-2.545,7.906,7.906,0,0,1,2.879,1.826,10.339,10.339,0,0,1-.8,4.388" transform="translate(-67.893 -3.239)" fill="#006e96"/>
        <rect id="Rectangle_311" data-name="Rectangle 311" width="55.815" height="15.807" fill="none"/>
      </g>
    </g>
  </g>
</svg>
