<svg xmlns="http://www.w3.org/2000/svg" width="21.592" height="21.592" viewBox="0 0 21.592 21.592">
  <path id="Icon_material-person-outline" data-name="Icon material-person-outline" d="M16.8,8.564A2.834,2.834,0,1,1,13.962,11.4,2.834,2.834,0,0,1,16.8,8.564m0,12.145c4.008,0,8.232,1.97,8.232,2.834v1.484H8.564V23.543c0-.864,4.224-2.834,8.232-2.834M16.8,6a5.4,5.4,0,1,0,5.4,5.4A5.4,5.4,0,0,0,16.8,6Zm0,12.145c-3.6,0-10.8,1.808-10.8,5.4v4.048H27.592V23.543C27.592,19.954,20.4,18.145,16.8,18.145Z" transform="translate(-6 -6)" fill="#6f6b70"/>
</svg>
