<svg xmlns="http://www.w3.org/2000/svg" width="23.948" height="23.948" viewBox="0 0 23.948 23.948">
  <path id="Icon_awesome-bus" data-name="Icon awesome-bus" d="M22.825,5.987h-.374V3.742c0-2.1-4.64-3.742-10.477-3.742S1.5,1.646,1.5,3.742V5.987H1.123A1.123,1.123,0,0,0,0,7.109v3.742a1.123,1.123,0,0,0,1.123,1.123H1.5v7.484a1.5,1.5,0,0,0,1.5,1.5v1.5a1.5,1.5,0,0,0,1.5,1.5h1.5a1.5,1.5,0,0,0,1.5-1.5v-1.5h8.98v1.5a1.5,1.5,0,0,0,1.5,1.5h1.5a1.5,1.5,0,0,0,1.5-1.5v-1.5h.3a1.181,1.181,0,0,0,1.2-1.2V11.974h.374a1.123,1.123,0,0,0,1.123-1.123V7.109A1.123,1.123,0,0,0,22.825,5.987ZM5.239,18.709a1.5,1.5,0,1,1,1.5-1.5A1.5,1.5,0,0,1,5.239,18.709Zm.748-5.239a1.5,1.5,0,0,1-1.5-1.5V5.987a1.5,1.5,0,0,1,1.5-1.5H17.961a1.5,1.5,0,0,1,1.5,1.5v5.987a1.5,1.5,0,0,1-1.5,1.5Zm12.722,5.239a1.5,1.5,0,1,1,1.5-1.5A1.5,1.5,0,0,1,18.709,18.709Z" fill="#ff5d4b"/>
</svg>
