<svg xmlns="http://www.w3.org/2000/svg" width="43.024" height="43.024" viewBox="0 0 43.024 43.024">
  <path id="Icon_awesome-bus-alt" data-name="Icon awesome-bus-alt" d="M41.007,10.756h-.672V6.722C40.335,2.958,32,0,21.512,0S2.689,2.958,2.689,6.722v4.033H2.017A2.017,2.017,0,0,0,0,12.773V19.5a2.017,2.017,0,0,0,2.017,2.017h.672V34.957a2.689,2.689,0,0,0,2.689,2.689v2.689a2.689,2.689,0,0,0,2.689,2.689h2.689a2.689,2.689,0,0,0,2.689-2.689V37.646H29.579v2.689a2.689,2.689,0,0,0,2.689,2.689h2.689a2.689,2.689,0,0,0,2.689-2.689V37.646h.538a2.121,2.121,0,0,0,2.151-2.151V21.512h.672A2.017,2.017,0,0,0,43.024,19.5V12.773A2.017,2.017,0,0,0,41.007,10.756ZM13.445,6.05a.672.672,0,0,1,.672-.672H28.907a.672.672,0,0,1,.672.672V7.395a.672.672,0,0,1-.672.672H14.117a.672.672,0,0,1-.672-.672ZM9.411,33.612A2.689,2.689,0,1,1,12.1,30.923,2.689,2.689,0,0,1,9.411,33.612ZM20.167,24.2H10.756a2.689,2.689,0,0,1-2.689-2.689V13.445a2.689,2.689,0,0,1,2.689-2.689h9.411Zm2.689,0V10.756h9.411a2.689,2.689,0,0,1,2.689,2.689v8.067A2.689,2.689,0,0,1,32.268,24.2Zm10.756,9.411A2.689,2.689,0,1,1,36.3,30.923,2.689,2.689,0,0,1,33.612,33.612Z" fill="#ff5d4b"/>
</svg>
