<svg xmlns="http://www.w3.org/2000/svg" width="27.399" height="22.492" viewBox="0 0 27.399 22.492">
  <path id="Icon_awesome-ticket-alt" data-name="Icon awesome-ticket-alt" d="M6.089,10.123H21.311V21.369H6.089Zm19.027,5.623A2.589,2.589,0,0,0,27.4,18.557V24.18a2.589,2.589,0,0,1-2.283,2.811H2.283A2.589,2.589,0,0,1,0,24.18V18.557a2.589,2.589,0,0,0,2.283-2.811A2.589,2.589,0,0,0,0,12.934V7.311A2.589,2.589,0,0,1,2.283,4.5H25.116A2.589,2.589,0,0,1,27.4,7.311v5.623A2.589,2.589,0,0,0,25.116,15.746ZM22.833,9.654a1.294,1.294,0,0,0-1.142-1.406H5.708A1.294,1.294,0,0,0,4.567,9.654V21.837a1.294,1.294,0,0,0,1.142,1.406H21.691a1.294,1.294,0,0,0,1.142-1.406Z" transform="translate(0 -4.5)" fill="#6f6b70"/>
</svg>
