<svg xmlns="http://www.w3.org/2000/svg" xmlns:xlink="http://www.w3.org/1999/xlink" width="25.617" height="19.925" viewBox="0 0 25.617 19.925">
  <defs>
    <clipPath id="clip-path">
      <rect width="25.617" height="19.925" fill="none"/>
    </clipPath>
  </defs>
  <g id="Repeat_Grid_1" data-name="Repeat Grid 1" clip-path="url(#clip-path)">
    <g transform="translate(-72 -217.575)">
      <path id="Icon_awesome-credit-card" data-name="Icon awesome-credit-card" d="M0,20.04a2.135,2.135,0,0,0,2.135,2.135H23.483a2.135,2.135,0,0,0,2.135-2.135V12.212H0Zm8.539-3.024a.535.535,0,0,1,.534-.534h6.049a.535.535,0,0,1,.534.534v1.779a.535.535,0,0,1-.534.534H9.073a.535.535,0,0,1-.534-.534Zm-5.693,0a.535.535,0,0,1,.534-.534h3.2a.535.535,0,0,1,.534.534v1.779a.535.535,0,0,1-.534.534H3.38a.535.535,0,0,1-.534-.534ZM25.617,4.385V6.52H0V4.385A2.135,2.135,0,0,1,2.135,2.25H23.483A2.135,2.135,0,0,1,25.617,4.385Z" transform="translate(72 215.325)" fill="#47a9eb"/>
    </g>
  </g>
</svg>
