<svg xmlns="http://www.w3.org/2000/svg" width="226.059" height="90.993" viewBox="0 0 226.059 90.993">
  <g id="Swa_Logo" data-name="Swa Logo" transform="translate(113.03 45.496)">
    <g id="Group_150" data-name="Group 150" transform="translate(-113.03 -45.496)">
      <path id="Path_88" data-name="Path 88" d="M67.928,130.013a46.785,46.785,0,0,1-5.943-.375,38.454,38.454,0,0,1-5.138-.978,6.524,6.524,0,0,1-3.387-2.038,5.551,5.551,0,0,1,4.28-9.123,7.4,7.4,0,0,1,1.7.209,32.759,32.759,0,0,0,4.188.8,34.944,34.944,0,0,0,4.3.264,34.321,34.321,0,0,0,12.3-2.245,38.642,38.642,0,0,0,9.268-5.1l1.61-1.2,1.4,1.439a49.322,49.322,0,0,0,4.17,3.823c.118.1.235.187.353.277l2.543,2-2.279,1.8a49.9,49.9,0,0,1-13.3,7.551A45.265,45.265,0,0,1,67.928,130.013Z" transform="translate(-18.458 -39.02)" fill="#fff"/>
      <path id="Path_89" data-name="Path 89" d="M56.478,126.822a4.27,4.27,0,0,0,2.227,1.291,35.966,35.966,0,0,0,4.828.917,44.325,44.325,0,0,0,5.651.356,42.787,42.787,0,0,0,15.25-2.751,47.4,47.4,0,0,0,12.694-7.2c-.214-.169-.432-.331-.644-.5a51.379,51.379,0,0,1-4.366-4,40.761,40.761,0,0,1-9.818,5.405,36.445,36.445,0,0,1-13.117,2.4,37.188,37.188,0,0,1-4.584-.281,34.736,34.736,0,0,1-4.435-.842,3.858,3.858,0,0,0-2.433.094A3.279,3.279,0,0,0,56.179,123a3.2,3.2,0,0,0,.3,3.817Z" transform="translate(-19.714 -40.684)" fill="#fff"/>
      <path id="Path_90" data-name="Path 90" d="M206.23,81.147a5.423,5.423,0,0,0-2.636-2.249,5.535,5.535,0,0,0-2.151-.419,7.234,7.234,0,0,0-1.711.218,34.093,34.093,0,0,1-4.189.788,34.9,34.9,0,0,1-16.6-1.981,38.43,38.43,0,0,1-7.167-3.645,57.655,57.655,0,0,0,4.647-6.041,58.745,58.745,0,0,0,7.225-15.366,60,60,0,0,0,2.546-17.49,54.428,54.428,0,0,0-2.689-17.84,29.1,29.1,0,0,0-7.848-12.43,18.723,18.723,0,0,0-24.775-.019,28.888,28.888,0,0,0-7.851,12.416,54.476,54.476,0,0,0-2.7,17.873,59.414,59.414,0,0,0,2.575,17.5A58.41,58.41,0,0,0,150.152,67.8a56.9,56.9,0,0,0,4.659,6.048,38.47,38.47,0,0,1-7.182,3.656,35.024,35.024,0,0,1-24.674,0,38.422,38.422,0,0,1-7.18-3.654,57.649,57.649,0,0,0,4.656-6.05,58.623,58.623,0,0,0,7.249-15.344,59.588,59.588,0,0,0,2.57-17.494,54.335,54.335,0,0,0-2.7-17.872,28.9,28.9,0,0,0-7.847-12.417A18.731,18.731,0,0,0,94.925,4.7,29.094,29.094,0,0,0,87.08,17.123a54.417,54.417,0,0,0-2.69,17.839,59.2,59.2,0,0,0,9.794,32.856,56.846,56.846,0,0,0,4.682,6.1l-.052.039,1.76,1.811c.02.021.039.043.059.064l1.4,1.445.038-.028q.774.739,1.577,1.446l-.061.048,1.559,1.229.049.041c.149.121.3.238.452.356l1.641,1.29.027-.021a50.057,50.057,0,0,0,11.879,6.453,46.147,46.147,0,0,0,32.194,0,50,50,0,0,0,11.885-6.457l.027.021.031-.025a50.074,50.074,0,0,0,11.864,6.46,45.224,45.224,0,0,0,16.08,2.9,46.363,46.363,0,0,0,5.926-.375,38.517,38.517,0,0,0,5.11-.976,6.523,6.523,0,0,0,3.431-2.04,5.36,5.36,0,0,0,1.295-3.287A5.683,5.683,0,0,0,206.23,81.147ZM163.246,11.205a7.635,7.635,0,0,1,5.673,2.565,19.894,19.894,0,0,1,4.392,8.18,45.324,45.324,0,0,1,1.675,13.012,48.38,48.38,0,0,1-2.032,14.077A47.518,47.518,0,0,1,167.208,61.4a45.636,45.636,0,0,1-3.924,5.125,45.431,45.431,0,0,1-3.926-5.123,47.944,47.944,0,0,1-7.818-26.435,45.419,45.419,0,0,1,1.68-13.048,19.891,19.891,0,0,1,4.374-8.163A7.6,7.6,0,0,1,163.246,11.205ZM107.3,66.521a44.749,44.749,0,0,1-3.9-5.118,48.162,48.162,0,0,1-7.8-26.441,45.288,45.288,0,0,1,1.675-13.01,19.926,19.926,0,0,1,4.4-8.186,7.554,7.554,0,0,1,11.325-.015,19.819,19.819,0,0,1,4.373,8.163,45.25,45.25,0,0,1,1.68,13.047A47.936,47.936,0,0,1,111.227,61.4,45.311,45.311,0,0,1,107.3,66.521Z" transform="translate(-29.875)" fill="#fff"/>
      <path id="Path_91" data-name="Path 91" d="M116.448,116.531c.212.173.43.335.644.5.222-.175.446-.344.665-.523a52.16,52.16,0,0,0,4.352-3.994c-.572-.426-1.14-.862-1.7-1.32a44.6,44.6,0,0,1-3.311-3.039,44.756,44.756,0,0,1-3.313,3.039c-.56.462-1.132.9-1.709,1.331A51.379,51.379,0,0,0,116.448,116.531Z" transform="translate(-39.678 -38.289)" fill="#fff"/>
      <path id="Path_92" data-name="Path 92" d="M24.681,78.238C6.484,78.238,0,71.949,0,66.065c0-1.326.423-5.652,5.866-5.652,3.329,0,5.691,1.658,8.424,3.576,3.324,2.333,7.091,4.977,13.171,4.977,7.136,0,7.5-3.93,7.5-4.718,0-3.994-5.411-5.085-11.258-5.67C7.973,57.019,0,51.842,0,43.189,0,35.748,6.016,27.06,22.97,27.06c17.711,0,22.435,7.718,22.435,12.28,0,2.14-.944,4.69-5.439,4.69-4.319,0-7.015-1.667-9.869-3.431-2.8-1.729-5.69-3.517-9.906-3.517-6.163,0-6.642,3.529-6.642,4.61,0,4.959,6.563,5.629,14.872,6.478,1.42.145,2.889.295,4.369.471,11.379,1.347,16.678,5.8,16.678,14,0,4.941-1.59,8.549-4.859,11.03C40.619,76.7,33.914,78.238,24.681,78.238Z" transform="translate(0 -9.579)" fill="#fff"/>
      <path id="Path_93" data-name="Path 93" d="M306.954,63.511h-1.938V46.393c0-14.1-6.37-19.335-23.508-19.335-18.133,0-24.89,8.32-24.89,13.566,0,3.437,2.08,5.329,5.866,5.329,4.012,0,5.93-1.886,8.159-4.063,2.2-2.158,4.69-4.6,9.16-4.6,5.058,0,6.854,3.12,6.854,5.788,0,4.767-5.549,6.279-11.97,8.03l-.168.045c-10.381,2.72-18.973,5.782-18.973,15.762,0,3.947,1.4,6.925,4.167,8.85A16.256,16.256,0,0,0,268.9,78.24c7.054,0,12.41-2.952,15.065-5.717l1.938-2.016,1.208,2.526c1.7,3.547,5.556,5.207,12.151,5.207h6.518c6.615,0,7.681-1.951,7.681-6.615v-1.5C313.459,64.6,311.076,63.511,306.954,63.511Z" transform="translate(-90.465 -9.579)" fill="#fff"/>
      <g id="Group_149" data-name="Group 149" transform="translate(218.862 14.55)">
        <path id="Path_94" data-name="Path 94" d="M343.155,26.232a.55.55,0,0,1,.333-.1.734.734,0,0,1,.271.047.5.5,0,0,1,.186.126.553.553,0,0,1,.119.206l0,.011,0,.012a.526.526,0,0,0,.16.21.469.469,0,0,0,.592-.042.448.448,0,0,0,.129-.328.651.651,0,0,0-.009-.107c-.005-.028-.013-.061-.023-.1l0-.01a1.2,1.2,0,0,0-.309-.5,1.464,1.464,0,0,0-.5-.315,1.753,1.753,0,0,0-.623-.109,1.6,1.6,0,0,0-.864.233,1.546,1.546,0,0,0-.575.652,2.348,2.348,0,0,0,0,1.877,1.536,1.536,0,0,0,.575.652,1.609,1.609,0,0,0,.865.233,1.766,1.766,0,0,0,.624-.108,1.436,1.436,0,0,0,.5-.315,1.2,1.2,0,0,0,.307-.5l0-.006a1.048,1.048,0,0,0,.025-.1.721.721,0,0,0,.008-.107.439.439,0,0,0-.453-.455.463.463,0,0,0-.429.3l0,.01,0,.011a.515.515,0,0,1-.307.329.722.722,0,0,1-.269.047.554.554,0,0,1-.333-.1.709.709,0,0,1-.239-.309,1.454,1.454,0,0,1,0-1.034A.719.719,0,0,1,343.155,26.232Z" transform="translate(-339.878 -23.483)" fill="#fff"/>
        <path id="Path_95" data-name="Path 95" d="M345.812,24.992A3.65,3.65,0,0,0,345.3,24a3.716,3.716,0,0,0-.782-.781,3.612,3.612,0,0,0-.988-.516,3.559,3.559,0,0,0-2.264,0,3.617,3.617,0,0,0-.986.516A3.721,3.721,0,0,0,339.5,24a3.609,3.609,0,0,0-.516.988,3.573,3.573,0,0,0,0,2.26,3.653,3.653,0,0,0,2.282,2.283,3.557,3.557,0,0,0,2.263,0,3.643,3.643,0,0,0,.986-.515,3.726,3.726,0,0,0,.782-.78,3.658,3.658,0,0,0,.516-.988,3.563,3.563,0,0,0,0-2.261ZM342.4,28.727a2.564,2.564,0,0,1-.822-.131,2.61,2.61,0,0,1-1.28-.934,2.608,2.608,0,0,1,2.924-4.013,2.606,2.606,0,0,1,1.282.933,2.607,2.607,0,0,1-.563,3.644,2.652,2.652,0,0,1-.718.37A2.57,2.57,0,0,1,342.4,28.727Z" transform="translate(-338.799 -22.523)" fill="#fff"/>
      </g>
    </g>
  </g>
</svg>
